<?xml version="1.0" encoding="UTF-8"?>
<svg xmlns="http://www.w3.org/2000/svg" xmlns:xlink="http://www.w3.org/1999/xlink" width="139pt" height="115pt" viewBox="0 0 139 115">
<defs>
<g>
<g id="glyph-0-0">
<path d="M 2.390625 -0.796875 C 2.679688 -0.796875 2.828125 -1.0625 2.828125 -1.59375 C 2.828125 -1.945312 2.679688 -2.125 2.390625 -2.125 Z M 4 -5.59375 C 4.664062 -5.5625 5.175781 -5.425781 5.53125 -5.1875 C 5.925781 -4.925781 6.125 -4.53125 6.125 -4 L 6.125 -1.59375 C 6.125 -0.882812 6.566406 -0.53125 7.453125 -0.53125 C 8.335938 -0.53125 8.78125 -0.882812 8.78125 -1.59375 L 8.78125 -5.28125 C 8.78125 -5.664062 8.425781 -5.910156 7.71875 -6.015625 C 7.789062 -6.378906 7.976562 -6.800781 8.28125 -7.28125 C 8.582031 -7.75 8.832031 -7.984375 9.03125 -7.984375 C 9.1875 -7.984375 9.390625 -7.910156 9.640625 -7.765625 L 10.015625 -7.53125 C 10.179688 -7.425781 10.394531 -7.398438 10.65625 -7.453125 C 10.613281 -7.203125 10.53125 -6.984375 10.40625 -6.796875 C 10.269531 -6.609375 10.113281 -6.503906 9.9375 -6.484375 C 9.757812 -6.453125 9.515625 -6.523438 9.203125 -6.703125 C 8.890625 -6.867188 8.6875 -6.847656 8.59375 -6.640625 L 8.453125 -6.328125 C 9.390625 -6.117188 9.859375 -5.875 9.859375 -5.59375 L 9.859375 -1.59375 C 9.859375 -0.53125 9.054688 0 7.453125 0 C 5.859375 0 5.0625 -0.53125 5.0625 -1.59375 L 5.0625 -4 C 5.0625 -4.351562 4.953125 -4.617188 4.734375 -4.796875 C 4.503906 -4.972656 4.171875 -5.0625 3.734375 -5.0625 C 3.285156 -5.0625 2.953125 -4.972656 2.734375 -4.796875 C 2.503906 -4.617188 2.390625 -4.351562 2.390625 -4 L 2.390625 -2.65625 C 3.035156 -2.65625 3.359375 -2.300781 3.359375 -1.59375 C 3.359375 -1.238281 3.265625 -0.882812 3.078125 -0.53125 C 2.890625 -0.175781 2.570312 0 2.125 0 C 1.59375 0 1.328125 -0.175781 1.328125 -0.53125 L 1.328125 -4 C 1.328125 -4.53125 1.53125 -4.925781 1.9375 -5.1875 C 2.175781 -5.351562 2.488281 -5.46875 2.875 -5.53125 C 2.726562 -5.769531 2.300781 -5.929688 1.59375 -6.015625 C 1.675781 -6.378906 1.898438 -6.800781 2.265625 -7.28125 C 2.617188 -7.75 2.910156 -7.984375 3.140625 -7.984375 C 3.316406 -7.984375 3.554688 -7.910156 3.859375 -7.765625 L 4.296875 -7.53125 C 4.492188 -7.425781 4.742188 -7.398438 5.046875 -7.453125 C 5.003906 -7.203125 4.910156 -6.984375 4.765625 -6.796875 C 4.597656 -6.609375 4.414062 -6.503906 4.21875 -6.484375 C 4 -6.453125 3.695312 -6.523438 3.3125 -6.703125 C 2.925781 -6.867188 2.671875 -6.847656 2.546875 -6.640625 L 2.34375 -6.328125 C 3.445312 -6.117188 4 -5.875 4 -5.59375 Z M 4 -5.59375 "/>
</g>
<g id="glyph-0-1">
<path d="M -2.421875 2.828125 C -2.753906 3.253906 -3.070312 3.46875 -3.375 3.46875 C -3.882812 3.46875 -4.140625 3.25 -4.140625 2.8125 C -4.140625 2.5625 -4.039062 2.238281 -3.84375 1.84375 L -3.515625 1.234375 C -3.804688 1.234375 -3.953125 1.070312 -3.953125 0.75 C -3.953125 0.425781 -3.738281 0.265625 -3.3125 0.265625 C -2.957031 0.265625 -2.726562 0.375 -2.625 0.59375 C -2.519531 0.8125 -2.566406 1.113281 -2.765625 1.5 L -3.078125 2.09375 C -3.328125 2.570312 -3.351562 2.8125 -3.15625 2.8125 C -2.96875 2.8125 -2.625 2.492188 -2.125 1.859375 C -2.050781 2.492188 -1.953125 2.8125 -1.828125 2.8125 C -1.710938 2.8125 -1.609375 2.609375 -1.515625 2.203125 C -1.253906 0.910156 -1.054688 0.265625 -0.921875 0.265625 C -0.773438 0.265625 -0.703125 0.421875 -0.703125 0.734375 C -0.703125 1.054688 -0.734375 1.546875 -0.796875 2.203125 C -0.929688 3.046875 -1.203125 3.46875 -1.609375 3.46875 C -2.015625 3.46875 -2.285156 3.253906 -2.421875 2.828125 Z M -2.421875 2.828125 "/>
</g>
<g id="glyph-0-2">
<path d="M 4.875 -5.328125 C 4.875 -5.148438 4.9375 -5.0625 5.0625 -5.0625 L 5.0625 -5.453125 C 4.9375 -5.453125 4.875 -5.410156 4.875 -5.328125 Z M 6.125 -1.328125 C 6.125 -0.441406 5.632812 0 4.65625 0 C 4.257812 0 3.867188 -0.265625 3.484375 -0.796875 C 3.097656 -1.328125 2.734375 -1.59375 2.390625 -1.59375 L 2.390625 -0.53125 C 2.390625 -0.175781 2.210938 0 1.859375 0 C 1.503906 0 1.328125 -0.175781 1.328125 -0.53125 L 1.328125 -3.578125 L 2.390625 -3.109375 L 2.390625 -2.125 C 2.835938 -2.125 3.273438 -1.90625 3.703125 -1.46875 C 4.117188 -1.019531 4.4375 -0.796875 4.65625 -0.796875 C 4.925781 -0.796875 5.0625 -0.972656 5.0625 -1.328125 L 5.0625 -2.921875 L 2.84375 -3.90625 C 1.832031 -4.351562 1.328125 -4.914062 1.328125 -5.59375 L 1.328125 -6.390625 C 1.328125 -7.453125 2.128906 -7.984375 3.734375 -7.984375 C 5.328125 -7.984375 6.125 -7.453125 6.125 -6.390625 L 6.125 -5.0625 C 6.125 -4.707031 5.789062 -4.53125 5.125 -4.53125 C 4.59375 -4.53125 4.328125 -4.796875 4.328125 -5.328125 C 4.328125 -5.546875 4.394531 -5.710938 4.53125 -5.828125 C 4.664062 -5.929688 4.84375 -5.984375 5.0625 -5.984375 L 5.0625 -6.390625 C 5.0625 -7.097656 4.617188 -7.453125 3.734375 -7.453125 C 2.835938 -7.453125 2.390625 -7.097656 2.390625 -6.390625 L 2.390625 -5.59375 C 2.390625 -4.988281 2.789062 -4.507812 3.59375 -4.15625 L 6.125 -3.015625 Z M 6.125 -1.328125 "/>
</g>
<g id="glyph-0-3">
<path d="M 3.734375 0 C 2.128906 0 1.328125 -0.53125 1.328125 -1.59375 L 1.328125 -5.28125 C 1.328125 -5.664062 0.972656 -5.910156 0.265625 -6.015625 C 0.335938 -6.378906 0.523438 -6.800781 0.828125 -7.28125 C 1.128906 -7.75 1.378906 -7.984375 1.578125 -7.984375 C 1.734375 -7.984375 1.9375 -7.910156 2.1875 -7.765625 L 2.5625 -7.53125 C 2.726562 -7.425781 2.9375 -7.398438 3.1875 -7.453125 C 3.15625 -7.203125 3.070312 -6.984375 2.9375 -6.796875 C 2.8125 -6.609375 2.660156 -6.503906 2.484375 -6.484375 C 2.304688 -6.453125 2.0625 -6.523438 1.75 -6.703125 C 1.425781 -6.867188 1.222656 -6.847656 1.140625 -6.640625 L 0.984375 -6.328125 C 1.921875 -6.117188 2.390625 -5.875 2.390625 -5.59375 L 2.390625 -1.59375 C 2.390625 -0.882812 2.835938 -0.53125 3.734375 -0.53125 C 4.617188 -0.53125 5.0625 -0.882812 5.0625 -1.59375 L 5.0625 -5.28125 C 5.0625 -5.664062 4.707031 -5.910156 4 -6.015625 C 4.0625 -6.378906 4.25 -6.800781 4.5625 -7.28125 C 4.863281 -7.75 5.109375 -7.984375 5.296875 -7.984375 C 5.453125 -7.984375 5.65625 -7.910156 5.90625 -7.765625 L 6.28125 -7.53125 C 6.445312 -7.425781 6.660156 -7.398438 6.921875 -7.453125 C 6.890625 -7.203125 6.804688 -6.984375 6.671875 -6.796875 C 6.535156 -6.609375 6.378906 -6.503906 6.203125 -6.484375 C 6.023438 -6.453125 5.78125 -6.523438 5.46875 -6.703125 C 5.15625 -6.867188 4.953125 -6.847656 4.859375 -6.640625 L 4.71875 -6.328125 C 5.65625 -6.117188 6.125 -5.875 6.125 -5.59375 L 6.125 -1.59375 C 6.125 -0.53125 5.328125 0 3.734375 0 Z M 3.734375 0 "/>
</g>
<g id="glyph-0-4">
<path d="M 1.4375 -9.578125 C 1.238281 -9.578125 1.140625 -9.535156 1.140625 -9.453125 C 1.140625 -9.359375 1.289062 -9.3125 1.59375 -9.3125 C 1.832031 -9.3125 2.023438 -9.398438 2.171875 -9.578125 C 2.316406 -9.742188 2.390625 -9.957031 2.390625 -10.21875 C 2.390625 -10.414062 2.335938 -10.582031 2.234375 -10.71875 C 2.128906 -10.851562 1.988281 -10.921875 1.8125 -10.921875 C 1.488281 -10.921875 1.328125 -11.050781 1.328125 -11.3125 C 1.328125 -11.582031 1.488281 -11.71875 1.8125 -11.71875 C 2.207031 -11.71875 2.535156 -11.585938 2.796875 -11.328125 C 3.054688 -11.066406 3.1875 -10.695312 3.1875 -10.21875 C 3.1875 -9.851562 3.0625 -9.523438 2.8125 -9.234375 C 2.550781 -8.929688 2.144531 -8.78125 1.59375 -8.78125 C 1.195312 -8.78125 0.878906 -8.835938 0.640625 -8.953125 C 0.390625 -9.054688 0.265625 -9.222656 0.265625 -9.453125 C 0.265625 -9.671875 0.316406 -9.835938 0.421875 -9.953125 C 0.515625 -10.066406 0.660156 -10.125 0.859375 -10.125 C 1.046875 -10.125 1.1875 -10.078125 1.28125 -9.984375 C 1.382812 -9.898438 1.4375 -9.765625 1.4375 -9.578125 Z M 2.390625 -0.796875 C 2.566406 -0.796875 2.65625 -1.113281 2.65625 -1.75 C 2.65625 -2 2.566406 -2.125 2.390625 -2.125 Z M 1.328125 -5.28125 C 1.328125 -5.664062 0.972656 -5.910156 0.265625 -6.015625 C 0.335938 -6.378906 0.523438 -6.800781 0.828125 -7.28125 C 1.128906 -7.75 1.378906 -7.984375 1.578125 -7.984375 C 1.734375 -7.984375 1.9375 -7.910156 2.1875 -7.765625 L 2.5625 -7.53125 C 2.726562 -7.425781 2.9375 -7.398438 3.1875 -7.453125 C 3.15625 -7.203125 3.070312 -6.984375 2.9375 -6.796875 C 2.8125 -6.609375 2.660156 -6.503906 2.484375 -6.484375 C 2.304688 -6.453125 2.0625 -6.523438 1.75 -6.703125 C 1.425781 -6.867188 1.222656 -6.847656 1.140625 -6.640625 L 0.984375 -6.328125 C 1.921875 -6.117188 2.390625 -5.875 2.390625 -5.59375 L 2.390625 -2.65625 C 2.921875 -2.65625 3.1875 -2.351562 3.1875 -1.75 C 3.1875 -1.289062 3.097656 -0.882812 2.921875 -0.53125 C 2.742188 -0.175781 2.476562 0 2.125 0 C 1.59375 0 1.328125 -0.175781 1.328125 -0.53125 Z M 1.328125 -5.28125 "/>
</g>
<g id="glyph-0-5">
<path d="M -6.609375 2.328125 C -6.609375 1.773438 -6.472656 1.335938 -6.203125 1.015625 C -5.941406 0.691406 -5.546875 0.53125 -5.015625 0.53125 C -4.585938 0.53125 -4.226562 0.644531 -3.9375 0.875 C -3.644531 1.101562 -3.421875 1.445312 -3.265625 1.90625 C -3.117188 2.257812 -2.972656 2.488281 -2.828125 2.59375 C -2.679688 2.695312 -2.539062 2.75 -2.40625 2.75 C -2.257812 2.75 -2.113281 2.582031 -1.96875 2.25 C -1.832031 1.914062 -1.722656 1.546875 -1.640625 1.140625 C -1.566406 0.734375 -1.394531 0.53125 -1.125 0.53125 C -0.9375 0.53125 -0.84375 0.644531 -0.84375 0.875 C -0.84375 0.976562 -0.863281 1.109375 -0.90625 1.265625 C -1.03125 1.742188 -1.226562 2.226562 -1.5 2.71875 C -1.769531 3.207031 -2.054688 3.453125 -2.359375 3.453125 C -2.742188 3.453125 -3.066406 3.359375 -3.328125 3.171875 C -3.585938 2.972656 -3.785156 2.6875 -3.921875 2.3125 C -4.046875 1.875 -4.203125 1.566406 -4.390625 1.390625 C -4.578125 1.210938 -4.785156 1.125 -5.015625 1.125 C -5.273438 1.125 -5.472656 1.226562 -5.609375 1.4375 C -5.742188 1.644531 -5.8125 1.941406 -5.8125 2.328125 C -5.8125 2.648438 -5.722656 2.8125 -5.546875 2.8125 C -5.367188 2.8125 -5.28125 2.703125 -5.28125 2.484375 C -5.101562 2.484375 -4.96875 2.523438 -4.875 2.609375 C -4.789062 2.691406 -4.75 2.8125 -4.75 2.96875 C -4.75 3.132812 -4.816406 3.257812 -4.953125 3.34375 C -5.078125 3.425781 -5.273438 3.46875 -5.546875 3.46875 C -5.898438 3.46875 -6.164062 3.382812 -6.34375 3.21875 C -6.519531 3.050781 -6.609375 2.753906 -6.609375 2.328125 Z M -6.609375 2.328125 "/>
</g>
<g id="glyph-1-0">
<path d="M 3.890625 -6.125 C 3.890625 -6.328125 3.890625 -6.390625 3.65625 -6.390625 C 3.515625 -6.390625 3.515625 -6.390625 3.421875 -6.25 L 0.234375 -1.890625 L 0.234375 -1.546875 L 2.9375 -1.546875 L 2.9375 -0.765625 C 2.9375 -0.65625 2.9375 -0.53125 2.890625 -0.46875 C 2.828125 -0.359375 2.59375 -0.328125 2.171875 -0.328125 L 1.921875 -0.328125 L 1.921875 0 C 2.375 -0.015625 2.984375 -0.03125 3.28125 -0.03125 L 3.40625 -0.03125 C 3.5625 -0.03125 4.265625 -0.03125 4.828125 0 L 4.828125 -0.328125 L 4.5625 -0.328125 C 4.171875 -0.328125 3.984375 -0.359375 3.921875 -0.46875 C 3.890625 -0.53125 3.890625 -0.65625 3.890625 -0.765625 L 3.890625 -1.546875 L 4.859375 -1.546875 L 4.859375 -1.890625 L 3.890625 -1.890625 Z M 3 -5.1875 L 3 -1.890625 L 0.625 -1.890625 Z M 3 -5.1875 "/>
</g>
<g id="glyph-2-0">
<path d="M 2.1875 -0.734375 C 2.445312 -0.734375 2.578125 -0.972656 2.578125 -1.453125 C 2.578125 -1.785156 2.445312 -1.953125 2.1875 -1.953125 Z M 3.65625 -5.109375 C 4.257812 -5.078125 4.722656 -4.957031 5.046875 -4.75 C 5.410156 -4.5 5.59375 -4.132812 5.59375 -3.65625 L 5.59375 -1.453125 C 5.59375 -0.804688 6 -0.484375 6.8125 -0.484375 C 7.625 -0.484375 8.03125 -0.804688 8.03125 -1.453125 L 8.03125 -4.828125 C 8.03125 -5.171875 7.707031 -5.394531 7.0625 -5.5 C 7.125 -5.832031 7.296875 -6.21875 7.578125 -6.65625 C 7.847656 -7.082031 8.070312 -7.296875 8.25 -7.296875 C 8.394531 -7.296875 8.582031 -7.226562 8.8125 -7.09375 L 9.15625 -6.875 C 9.300781 -6.78125 9.492188 -6.757812 9.734375 -6.8125 C 9.703125 -6.582031 9.625 -6.382812 9.5 -6.21875 C 9.382812 -6.039062 9.242188 -5.941406 9.078125 -5.921875 C 8.921875 -5.898438 8.695312 -5.96875 8.40625 -6.125 C 8.125 -6.28125 7.9375 -6.257812 7.84375 -6.0625 L 7.71875 -5.78125 C 8.570312 -5.59375 9 -5.367188 9 -5.109375 L 9 -1.453125 C 9 -0.484375 8.269531 0 6.8125 0 C 5.351562 0 4.625 -0.484375 4.625 -1.453125 L 4.625 -3.65625 C 4.625 -3.976562 4.523438 -4.21875 4.328125 -4.375 C 4.117188 -4.539062 3.8125 -4.625 3.40625 -4.625 C 3 -4.625 2.695312 -4.539062 2.5 -4.375 C 2.289062 -4.21875 2.1875 -3.976562 2.1875 -3.65625 L 2.1875 -2.4375 C 2.769531 -2.4375 3.0625 -2.109375 3.0625 -1.453125 C 3.0625 -1.128906 2.976562 -0.804688 2.8125 -0.484375 C 2.644531 -0.160156 2.359375 0 1.953125 0 C 1.460938 0 1.21875 -0.160156 1.21875 -0.484375 L 1.21875 -3.65625 C 1.21875 -4.132812 1.398438 -4.5 1.765625 -4.75 C 1.984375 -4.894531 2.269531 -4.992188 2.625 -5.046875 C 2.488281 -5.273438 2.097656 -5.425781 1.453125 -5.5 C 1.535156 -5.832031 1.738281 -6.21875 2.0625 -6.65625 C 2.394531 -7.082031 2.660156 -7.296875 2.859375 -7.296875 C 3.035156 -7.296875 3.257812 -7.226562 3.53125 -7.09375 L 3.921875 -6.875 C 4.109375 -6.78125 4.34375 -6.757812 4.625 -6.8125 C 4.582031 -6.582031 4.492188 -6.382812 4.359375 -6.21875 C 4.203125 -6.039062 4.03125 -5.941406 3.84375 -5.921875 C 3.65625 -5.898438 3.382812 -5.96875 3.03125 -6.125 C 2.675781 -6.28125 2.441406 -6.257812 2.328125 -6.0625 L 2.140625 -5.78125 C 3.148438 -5.59375 3.65625 -5.367188 3.65625 -5.109375 Z M 3.65625 -5.109375 "/>
</g>
<g id="glyph-2-1">
<path d="M 1.90625 -1.03125 L 1.90625 0 L 0.859375 0 L 0.859375 -1.03125 Z M 1.90625 -1.03125 "/>
</g>
<g id="glyph-2-2">
<path d="M 4.625 -3.75 L 4.625 -4.828125 C 4.625 -5.171875 4.300781 -5.394531 3.65625 -5.5 C 3.71875 -5.832031 3.890625 -6.21875 4.171875 -6.65625 C 4.441406 -7.082031 4.664062 -7.296875 4.84375 -7.296875 C 4.988281 -7.296875 5.175781 -7.226562 5.40625 -7.09375 L 5.75 -6.875 C 5.894531 -6.78125 6.085938 -6.757812 6.328125 -6.8125 C 6.296875 -6.582031 6.21875 -6.382812 6.09375 -6.21875 C 5.976562 -6.039062 5.835938 -5.941406 5.671875 -5.921875 C 5.515625 -5.898438 5.289062 -5.96875 5 -6.125 C 4.71875 -6.28125 4.53125 -6.257812 4.4375 -6.0625 L 4.3125 -5.78125 C 5.164062 -5.59375 5.59375 -5.367188 5.59375 -5.109375 L 5.59375 -1.453125 C 5.59375 -0.484375 4.863281 0 3.40625 0 C 1.945312 0 1.21875 -0.484375 1.21875 -1.453125 L 1.21875 -4.828125 C 1.21875 -5.171875 0.894531 -5.394531 0.25 -5.5 C 0.3125 -5.832031 0.484375 -6.21875 0.765625 -6.65625 C 1.035156 -7.082031 1.257812 -7.296875 1.4375 -7.296875 C 1.582031 -7.296875 1.769531 -7.226562 2 -7.09375 L 2.34375 -6.875 C 2.488281 -6.78125 2.679688 -6.757812 2.921875 -6.8125 C 2.890625 -6.582031 2.8125 -6.382812 2.6875 -6.21875 C 2.5625 -6.039062 2.421875 -5.941406 2.265625 -5.921875 C 2.109375 -5.898438 1.882812 -5.96875 1.59375 -6.125 C 1.300781 -6.28125 1.113281 -6.257812 1.03125 -6.0625 L 0.90625 -5.78125 C 1.757812 -5.59375 2.1875 -5.367188 2.1875 -5.109375 L 2.1875 -3.75 Z M 4.625 -3.265625 L 2.1875 -3.265625 L 2.1875 -1.453125 C 2.1875 -0.804688 2.59375 -0.484375 3.40625 -0.484375 C 4.21875 -0.484375 4.625 -0.804688 4.625 -1.453125 Z M 4.625 -3.265625 "/>
</g>
<g id="glyph-3-0">
<path d="M -1.8125 -4.625 L -1.8125 -4.28125 C -1.65625 -4.265625 -1.125 -4.1875 -0.96875 -4.046875 C -0.890625 -4 -0.890625 -3.25 -0.890625 -3.078125 L -0.890625 -1.453125 L -1.734375 -2.40625 C -2.3125 -3.078125 -2.75 -3.65625 -3.171875 -4.046875 C -3.59375 -4.453125 -3.984375 -4.625 -4.484375 -4.625 C -5.5625 -4.625 -6.3125 -3.671875 -6.3125 -2.421875 C -6.3125 -1.265625 -5.515625 -0.46875 -4.671875 -0.46875 C -4.171875 -0.46875 -4.09375 -0.921875 -4.09375 -1.0625 C -4.09375 -1.3125 -4.265625 -1.65625 -4.65625 -1.65625 C -5 -1.65625 -5.25 -1.34375 -5.1875 -1 C -5.75 -1.265625 -5.96875 -1.828125 -5.96875 -2.265625 C -5.96875 -3.265625 -5.0625 -3.546875 -4.484375 -3.546875 C -3.640625 -3.546875 -2.890625 -2.9375 -2.265625 -2.375 L -0.375 -0.578125 C -0.265625 -0.484375 -0.1875 -0.484375 0 -0.46875 L 0 -4.328125 C -0.59375 -4.4375 -1.21875 -4.53125 -1.8125 -4.625 Z M -1.8125 -4.625 "/>
</g>
<g id="glyph-3-1">
<path d="M -5.21875 -1.40625 C -5.171875 -1.59375 -5.109375 -1.75 -5.109375 -2 C -5.109375 -3.421875 -5.921875 -4.265625 -6.203125 -4.265625 C -6.296875 -4.265625 -6.3125 -4.203125 -6.3125 -4.140625 C -6.3125 -4.125 -6.3125 -4.109375 -6.265625 -4.015625 C -6.046875 -3.546875 -6.015625 -3.0625 -6.015625 -2.640625 C -6.015625 -2.203125 -6.09375 -1.75 -6.25 -1.34375 C -6.3125 -1.1875 -6.3125 -1.171875 -6.3125 -1.140625 C -6.3125 -1.015625 -6.21875 -1.015625 -6.0625 -1.015625 L -3.265625 -1.015625 C -3.09375 -1.015625 -2.984375 -1.015625 -2.984375 -1.1875 C -2.984375 -1.28125 -3.015625 -1.3125 -3.09375 -1.359375 C -3.421875 -1.609375 -3.6875 -2.046875 -3.6875 -2.640625 C -3.6875 -3.59375 -2.46875 -3.59375 -1.953125 -3.59375 C -1.625 -3.59375 -1.09375 -3.59375 -0.703125 -3.359375 C -0.296875 -3.125 -0.140625 -2.71875 -0.140625 -2.34375 C -0.140625 -1.8125 -0.421875 -1.203125 -1.046875 -0.96875 C -0.953125 -1.1875 -1.109375 -1.625 -1.5625 -1.625 C -1.90625 -1.625 -2.078125 -1.34375 -2.078125 -1.0625 C -2.078125 -0.765625 -1.828125 -0.515625 -1.453125 -0.515625 C -0.625 -0.515625 0.171875 -1.25 0.171875 -2.375 C 0.171875 -3.671875 -0.609375 -4.671875 -1.90625 -4.671875 C -3.078125 -4.671875 -3.96875 -3.921875 -3.96875 -2.65625 C -3.96875 -2.265625 -3.859375 -1.78125 -3.546875 -1.40625 Z M -5.21875 -1.40625 "/>
</g>
<g id="glyph-4-0">
<path d="M -0.453125 -1.65625 C -0.765625 -1.65625 -1.03125 -1.46875 -1.03125 -1.109375 C -1.03125 -0.765625 -0.765625 -0.5625 -0.46875 -0.5625 C -0.15625 -0.5625 0.078125 -0.734375 0.078125 -1.09375 C 0.078125 -1.46875 -0.171875 -1.65625 -0.453125 -1.65625 Z M -0.453125 -1.65625 "/>
</g>
<g id="glyph-5-0">
<path d="M -0.734375 -2.1875 C -0.734375 -2.445312 -0.972656 -2.578125 -1.453125 -2.578125 C -1.785156 -2.578125 -1.953125 -2.445312 -1.953125 -2.1875 Z M -5.109375 -3.65625 C -5.078125 -4.257812 -4.957031 -4.722656 -4.75 -5.046875 C -4.5 -5.410156 -4.132812 -5.59375 -3.65625 -5.59375 L -1.453125 -5.59375 C -0.804688 -5.59375 -0.484375 -6 -0.484375 -6.8125 C -0.484375 -7.625 -0.804688 -8.03125 -1.453125 -8.03125 L -4.828125 -8.03125 C -5.171875 -8.03125 -5.394531 -7.707031 -5.5 -7.0625 C -5.832031 -7.125 -6.21875 -7.296875 -6.65625 -7.578125 C -7.082031 -7.847656 -7.296875 -8.070312 -7.296875 -8.25 C -7.296875 -8.394531 -7.226562 -8.582031 -7.09375 -8.8125 L -6.875 -9.15625 C -6.78125 -9.300781 -6.757812 -9.492188 -6.8125 -9.734375 C -6.582031 -9.703125 -6.382812 -9.625 -6.21875 -9.5 C -6.039062 -9.382812 -5.941406 -9.242188 -5.921875 -9.078125 C -5.898438 -8.921875 -5.96875 -8.695312 -6.125 -8.40625 C -6.28125 -8.125 -6.257812 -7.9375 -6.0625 -7.84375 L -5.78125 -7.71875 C -5.59375 -8.570312 -5.367188 -9 -5.109375 -9 L -1.453125 -9 C -0.484375 -9 0 -8.269531 0 -6.8125 C 0 -5.351562 -0.484375 -4.625 -1.453125 -4.625 L -3.65625 -4.625 C -3.976562 -4.625 -4.21875 -4.523438 -4.375 -4.328125 C -4.539062 -4.117188 -4.625 -3.8125 -4.625 -3.40625 C -4.625 -3 -4.539062 -2.695312 -4.375 -2.5 C -4.21875 -2.289062 -3.976562 -2.1875 -3.65625 -2.1875 L -2.4375 -2.1875 C -2.4375 -2.769531 -2.109375 -3.0625 -1.453125 -3.0625 C -1.128906 -3.0625 -0.804688 -2.976562 -0.484375 -2.8125 C -0.160156 -2.644531 0 -2.359375 0 -1.953125 C 0 -1.460938 -0.160156 -1.21875 -0.484375 -1.21875 L -3.65625 -1.21875 C -4.132812 -1.21875 -4.5 -1.398438 -4.75 -1.765625 C -4.894531 -1.984375 -4.992188 -2.269531 -5.046875 -2.625 C -5.273438 -2.488281 -5.425781 -2.097656 -5.5 -1.453125 C -5.832031 -1.535156 -6.21875 -1.738281 -6.65625 -2.0625 C -7.082031 -2.394531 -7.296875 -2.660156 -7.296875 -2.859375 C -7.296875 -3.035156 -7.226562 -3.257812 -7.09375 -3.53125 L -6.875 -3.921875 C -6.78125 -4.109375 -6.757812 -4.34375 -6.8125 -4.625 C -6.582031 -4.582031 -6.382812 -4.492188 -6.21875 -4.359375 C -6.039062 -4.203125 -5.941406 -4.03125 -5.921875 -3.84375 C -5.898438 -3.65625 -5.96875 -3.382812 -6.125 -3.03125 C -6.28125 -2.675781 -6.257812 -2.441406 -6.0625 -2.328125 L -5.78125 -2.140625 C -5.59375 -3.148438 -5.367188 -3.65625 -5.109375 -3.65625 Z M -5.109375 -3.65625 "/>
</g>
<g id="glyph-5-1">
<path d="M -1.03125 -1.90625 L 0 -1.90625 L 0 -0.859375 L -1.03125 -0.859375 Z M -1.03125 -1.90625 "/>
</g>
<g id="glyph-5-2">
<path d="M -3.75 -4.625 L -4.828125 -4.625 C -5.171875 -4.625 -5.394531 -4.300781 -5.5 -3.65625 C -5.832031 -3.71875 -6.21875 -3.890625 -6.65625 -4.171875 C -7.082031 -4.441406 -7.296875 -4.664062 -7.296875 -4.84375 C -7.296875 -4.988281 -7.226562 -5.175781 -7.09375 -5.40625 L -6.875 -5.75 C -6.78125 -5.894531 -6.757812 -6.085938 -6.8125 -6.328125 C -6.582031 -6.296875 -6.382812 -6.21875 -6.21875 -6.09375 C -6.039062 -5.976562 -5.941406 -5.835938 -5.921875 -5.671875 C -5.898438 -5.515625 -5.96875 -5.289062 -6.125 -5 C -6.28125 -4.71875 -6.257812 -4.53125 -6.0625 -4.4375 L -5.78125 -4.3125 C -5.59375 -5.164062 -5.367188 -5.59375 -5.109375 -5.59375 L -1.453125 -5.59375 C -0.484375 -5.59375 0 -4.863281 0 -3.40625 C 0 -1.945312 -0.484375 -1.21875 -1.453125 -1.21875 L -4.828125 -1.21875 C -5.171875 -1.21875 -5.394531 -0.894531 -5.5 -0.25 C -5.832031 -0.3125 -6.21875 -0.484375 -6.65625 -0.765625 C -7.082031 -1.035156 -7.296875 -1.257812 -7.296875 -1.4375 C -7.296875 -1.582031 -7.226562 -1.769531 -7.09375 -2 L -6.875 -2.34375 C -6.78125 -2.488281 -6.757812 -2.679688 -6.8125 -2.921875 C -6.582031 -2.890625 -6.382812 -2.8125 -6.21875 -2.6875 C -6.039062 -2.5625 -5.941406 -2.421875 -5.921875 -2.265625 C -5.898438 -2.109375 -5.96875 -1.882812 -6.125 -1.59375 C -6.28125 -1.300781 -6.257812 -1.113281 -6.0625 -1.03125 L -5.78125 -0.90625 C -5.59375 -1.757812 -5.367188 -2.1875 -5.109375 -2.1875 L -3.75 -2.1875 Z M -3.265625 -4.625 L -3.265625 -2.1875 L -1.453125 -2.1875 C -0.804688 -2.1875 -0.484375 -2.59375 -0.484375 -3.40625 C -0.484375 -4.21875 -0.804688 -4.625 -1.453125 -4.625 Z M -3.265625 -4.625 "/>
</g>
<g id="glyph-6-0">
<path d="M 3.703125 -2.609375 L 1.75 -2.609375 L 1.75 -1.171875 C 1.75 -0.648438 2.070312 -0.390625 2.71875 -0.390625 C 3.375 -0.390625 3.703125 -0.648438 3.703125 -1.171875 Z M 4.46875 -1.171875 C 4.46875 -0.390625 3.882812 0 2.71875 0 C 1.550781 0 0.96875 -0.390625 0.96875 -1.171875 L 0.96875 -3.859375 C 0.96875 -4.140625 0.707031 -4.320312 0.1875 -4.40625 C 0.238281 -4.664062 0.378906 -4.96875 0.609375 -5.3125 C 0.828125 -5.664062 1.003906 -5.84375 1.140625 -5.84375 C 1.253906 -5.84375 1.40625 -5.785156 1.59375 -5.671875 L 1.875 -5.5 C 1.988281 -5.425781 2.140625 -5.410156 2.328125 -5.453125 C 2.304688 -5.265625 2.25 -5.101562 2.15625 -4.96875 C 2.050781 -4.832031 1.9375 -4.753906 1.8125 -4.734375 C 1.6875 -4.710938 1.507812 -4.765625 1.28125 -4.890625 C 1.050781 -5.015625 0.898438 -5.003906 0.828125 -4.859375 L 0.71875 -4.625 C 1.40625 -4.46875 1.75 -4.285156 1.75 -4.078125 L 1.75 -3 L 3.703125 -3 L 3.703125 -3.859375 C 3.703125 -4.140625 3.441406 -4.320312 2.921875 -4.40625 C 2.992188 -4.664062 3.207031 -4.96875 3.5625 -5.3125 C 3.894531 -5.664062 4.171875 -5.84375 4.390625 -5.84375 C 4.710938 -5.84375 5.066406 -5.765625 5.453125 -5.609375 L 6.34375 -5.265625 C 6.914062 -5.035156 7.203125 -4.640625 7.203125 -4.078125 L 7.203125 0 L 6.421875 0 L 6.421875 -4.078125 C 6.421875 -4.296875 6.316406 -4.441406 6.109375 -4.515625 L 5.15625 -4.90625 C 4.46875 -5.164062 3.992188 -5.148438 3.734375 -4.859375 L 3.546875 -4.625 C 4.160156 -4.46875 4.46875 -4.285156 4.46875 -4.078125 Z M 4.46875 -1.171875 "/>
</g>
<g id="glyph-6-1">
<path d="M 1.75 1.359375 C 1.75 1.753906 2.070312 1.953125 2.71875 1.953125 C 3.375 1.953125 3.703125 1.753906 3.703125 1.359375 L 3.703125 0.390625 L 4.46875 0.390625 L 4.46875 1.359375 C 4.46875 2.003906 3.882812 2.328125 2.71875 2.328125 C 1.550781 2.328125 0.96875 2.003906 0.96875 1.359375 L 0.96875 -3.859375 C 0.96875 -4.140625 0.707031 -4.320312 0.1875 -4.40625 C 0.238281 -4.664062 0.378906 -4.96875 0.609375 -5.3125 C 0.828125 -5.664062 1.003906 -5.84375 1.140625 -5.84375 C 1.253906 -5.84375 1.40625 -5.785156 1.59375 -5.671875 L 1.875 -5.5 C 1.988281 -5.425781 2.140625 -5.410156 2.328125 -5.453125 C 2.304688 -5.265625 2.25 -5.101562 2.15625 -4.96875 C 2.050781 -4.832031 1.9375 -4.753906 1.8125 -4.734375 C 1.6875 -4.710938 1.507812 -4.765625 1.28125 -4.890625 C 1.050781 -5.015625 0.898438 -5.003906 0.828125 -4.859375 L 0.71875 -4.625 C 1.40625 -4.46875 1.75 -4.285156 1.75 -4.078125 Z M 1.75 1.359375 "/>
</g>
<g id="glyph-6-2">
<path d="M 0.578125 -4.390625 L 0.578125 -4.671875 C 0.578125 -4.804688 0.660156 -4.953125 0.828125 -5.109375 L 1.078125 -5.359375 C 1.410156 -5.679688 1.617188 -5.84375 1.703125 -5.84375 C 1.796875 -5.84375 1.984375 -5.695312 2.265625 -5.40625 L 2.46875 -5.1875 C 2.539062 -5.101562 2.613281 -5.0625 2.6875 -5.0625 C 2.75 -5.0625 2.8125 -5.101562 2.875 -5.1875 L 3.0625 -5.40625 C 3.320312 -5.695312 3.5 -5.84375 3.59375 -5.84375 C 3.6875 -5.84375 3.804688 -5.757812 3.953125 -5.59375 L 4.390625 -5.109375 C 4.546875 -4.953125 4.703125 -4.925781 4.859375 -5.03125 C 4.679688 -4.601562 4.507812 -4.390625 4.34375 -4.390625 C 4.175781 -4.390625 4.046875 -4.4375 3.953125 -4.53125 L 3.65625 -4.859375 C 3.550781 -4.960938 3.457031 -5.015625 3.375 -5.015625 C 3.257812 -5.015625 3.128906 -4.910156 2.984375 -4.703125 C 2.835938 -4.492188 2.703125 -4.390625 2.578125 -4.390625 C 2.390625 -4.390625 2.1875 -4.492188 1.96875 -4.703125 L 1.796875 -4.859375 C 1.691406 -4.960938 1.585938 -5.015625 1.484375 -5.015625 C 1.378906 -5.015625 1.296875 -4.96875 1.234375 -4.875 C 1.179688 -4.769531 1.15625 -4.671875 1.15625 -4.578125 C 1.15625 -4.453125 1.332031 -4.296875 1.6875 -4.109375 L 1.1875 -3.765625 C 0.78125 -3.921875 0.578125 -4.128906 0.578125 -4.390625 Z M 1.75 -0.578125 C 1.957031 -0.578125 2.0625 -0.773438 2.0625 -1.171875 C 2.0625 -1.429688 1.957031 -1.5625 1.75 -1.5625 Z M 1.75 -1.953125 C 2.21875 -1.953125 2.453125 -1.691406 2.453125 -1.171875 C 2.453125 -0.910156 2.382812 -0.648438 2.25 -0.390625 C 2.113281 -0.128906 1.882812 0 1.5625 0 C 1.164062 0 0.96875 -0.128906 0.96875 -0.390625 L 0.96875 -2.921875 C 0.96875 -3.304688 1.113281 -3.597656 1.40625 -3.796875 C 1.695312 -3.984375 2.132812 -4.078125 2.71875 -4.078125 C 3.300781 -4.078125 3.738281 -3.984375 4.03125 -3.796875 C 4.320312 -3.597656 4.46875 -3.304688 4.46875 -2.921875 L 4.46875 0 L 3.703125 0 L 3.703125 -2.921875 C 3.703125 -3.179688 3.617188 -3.375 3.453125 -3.5 C 3.285156 -3.632812 3.039062 -3.703125 2.71875 -3.703125 C 2.394531 -3.703125 2.15625 -3.632812 2 -3.5 C 1.832031 -3.375 1.75 -3.179688 1.75 -2.921875 Z M 1.75 -1.953125 "/>
</g>
<g id="glyph-6-3">
<path d="M 1.59375 -5.109375 C 1.59375 -5.035156 1.628906 -4.972656 1.703125 -4.921875 L 1.796875 -4.921875 C 1.929688 -4.921875 2 -4.984375 2 -5.109375 C 2 -5.171875 1.984375 -5.21875 1.953125 -5.25 C 1.921875 -5.289062 1.867188 -5.3125 1.796875 -5.3125 C 1.722656 -5.3125 1.671875 -5.289062 1.640625 -5.25 C 1.609375 -5.21875 1.59375 -5.171875 1.59375 -5.109375 Z M 1.75 -3.890625 L 1.75 -0.546875 L 2.453125 -1.25 C 2.628906 -1.425781 2.8125 -1.425781 3 -1.25 L 3.703125 -0.546875 L 3.703125 -3.890625 L 4.46875 -3.890625 L 4.46875 -0.390625 C 4.46875 -0.128906 4.335938 0 4.078125 0 C 3.828125 0 3.617188 -0.0820312 3.453125 -0.25 L 2.71875 -0.96875 L 2 -0.25 C 1.832031 -0.0820312 1.617188 0 1.359375 0 C 1.097656 0 0.96875 -0.128906 0.96875 -0.390625 L 0.96875 -3.890625 Z M 4.0625 -4.640625 C 4.050781 -4.628906 4.035156 -4.617188 4.015625 -4.609375 C 3.710938 -4.390625 3.195312 -4.28125 2.46875 -4.28125 C 1.96875 -4.28125 1.59375 -4.34375 1.34375 -4.46875 C 1.09375 -4.601562 0.96875 -4.8125 0.96875 -5.09375 C 0.96875 -5.3125 1.035156 -5.488281 1.171875 -5.625 C 1.304688 -5.769531 1.492188 -5.84375 1.734375 -5.84375 C 1.960938 -5.84375 2.144531 -5.785156 2.28125 -5.671875 C 2.414062 -5.554688 2.484375 -5.398438 2.484375 -5.203125 C 2.484375 -5.015625 2.414062 -4.863281 2.28125 -4.75 C 2.351562 -4.738281 2.429688 -4.734375 2.515625 -4.734375 C 2.617188 -4.722656 2.734375 -4.71875 2.859375 -4.71875 C 3.097656 -4.71875 3.296875 -4.773438 3.453125 -4.890625 C 3.617188 -5.003906 3.703125 -5.1875 3.703125 -5.4375 C 3.703125 -5.707031 3.570312 -5.84375 3.3125 -5.84375 C 3.050781 -5.84375 2.921875 -5.96875 2.921875 -6.21875 C 2.921875 -6.476562 3.050781 -6.609375 3.3125 -6.609375 C 4.082031 -6.609375 4.46875 -6.21875 4.46875 -5.4375 C 4.46875 -5.40625 4.46875 -5.378906 4.46875 -5.359375 C 4.96875 -5.679688 5.335938 -5.84375 5.578125 -5.84375 C 5.847656 -5.84375 6.082031 -5.769531 6.28125 -5.625 L 6.625 -5.390625 C 7.007812 -5.128906 7.203125 -4.757812 7.203125 -4.28125 L 7.203125 0 L 6.421875 0 L 6.421875 -4.28125 C 6.421875 -4.488281 6.320312 -4.65625 6.125 -4.78125 L 5.796875 -5.015625 C 5.671875 -5.097656 5.507812 -5.140625 5.3125 -5.140625 C 5.144531 -5.140625 4.726562 -4.972656 4.0625 -4.640625 Z M 4.0625 -4.640625 "/>
</g>
<g id="glyph-6-4">
<path d="M -1.953125 0.46875 C -1.953125 0.375 -1.914062 0.304688 -1.84375 0.265625 C -1.78125 0.210938 -1.6875 0.1875 -1.5625 0.1875 C -1.425781 0.1875 -1.328125 0.234375 -1.265625 0.328125 C -1.203125 0.421875 -1.171875 0.554688 -1.171875 0.734375 L -1.171875 2.1875 C -1.171875 2.300781 -1.203125 2.382812 -1.265625 2.4375 C -1.335938 2.5 -1.441406 2.53125 -1.578125 2.53125 L -2.65625 1.96875 L -3.09375 2.390625 C -3.195312 2.484375 -3.273438 2.53125 -3.328125 2.53125 C -3.378906 2.53125 -3.441406 2.476562 -3.515625 2.375 L -4.171875 1.453125 C -4.242188 1.367188 -4.28125 1.25 -4.28125 1.09375 C -4.28125 0.945312 -4.164062 0.859375 -3.9375 0.828125 C -3.695312 0.796875 -3.484375 0.769531 -3.296875 0.75 C -3.097656 0.738281 -2.921875 0.734375 -2.765625 0.734375 L -1.75 0.734375 C -1.8125 0.734375 -1.859375 0.707031 -1.890625 0.65625 C -1.929688 0.613281 -1.953125 0.550781 -1.953125 0.46875 Z M -1.75 1.171875 L -2.8125 1.171875 C -2.96875 1.171875 -3.117188 1.175781 -3.265625 1.1875 C -3.410156 1.195312 -3.550781 1.21875 -3.6875 1.25 L -3.265625 1.875 L -2.71875 1.421875 L -1.75 1.828125 Z M -1.75 1.171875 "/>
</g>
<g id="glyph-6-5">
<path d="M 3.5625 -3.890625 C 3.5625 -3.765625 3.609375 -3.703125 3.703125 -3.703125 L 3.703125 -3.984375 C 3.609375 -3.984375 3.5625 -3.953125 3.5625 -3.890625 Z M 4.46875 -0.96875 C 4.46875 -0.320312 4.113281 0 3.40625 0 C 3.113281 0 2.828125 -0.191406 2.546875 -0.578125 C 2.265625 -0.972656 2 -1.171875 1.75 -1.171875 L 1.75 -0.390625 C 1.75 -0.128906 1.617188 0 1.359375 0 C 1.097656 0 0.96875 -0.128906 0.96875 -0.390625 L 0.96875 -2.625 L 1.75 -2.265625 L 1.75 -1.5625 C 2.070312 -1.5625 2.390625 -1.394531 2.703125 -1.0625 C 3.015625 -0.738281 3.25 -0.578125 3.40625 -0.578125 C 3.601562 -0.578125 3.703125 -0.707031 3.703125 -0.96875 L 3.703125 -2.125 L 2.078125 -2.859375 C 1.335938 -3.179688 0.96875 -3.585938 0.96875 -4.078125 L 0.96875 -4.671875 C 0.96875 -5.453125 1.550781 -5.84375 2.71875 -5.84375 C 3.882812 -5.84375 4.46875 -5.453125 4.46875 -4.671875 L 4.46875 -3.703125 C 4.46875 -3.441406 4.226562 -3.3125 3.75 -3.3125 C 3.363281 -3.3125 3.171875 -3.503906 3.171875 -3.890625 C 3.171875 -4.046875 3.21875 -4.164062 3.3125 -4.25 C 3.40625 -4.332031 3.535156 -4.375 3.703125 -4.375 L 3.703125 -4.671875 C 3.703125 -5.191406 3.375 -5.453125 2.71875 -5.453125 C 2.070312 -5.453125 1.75 -5.191406 1.75 -4.671875 L 1.75 -4.078125 C 1.75 -3.640625 2.039062 -3.289062 2.625 -3.03125 L 4.46875 -2.203125 Z M 4.46875 -0.96875 "/>
</g>
<g id="glyph-7-0">
<path d="M 2.53125 -4.84375 C 2.53125 -5.046875 2.515625 -5.0625 2.296875 -5.0625 C 1.765625 -4.5625 1 -4.5625 0.71875 -4.5625 L 0.71875 -4.296875 C 0.890625 -4.296875 1.359375 -4.296875 1.796875 -4.484375 L 1.796875 -0.65625 C 1.796875 -0.34375 1.796875 -0.296875 1.359375 -0.28125 L 0.796875 -0.265625 L 0.796875 0 C 1.1875 0 1.828125 -0.015625 2.171875 -0.015625 C 2.5 -0.015625 3.125 0 3.546875 0 L 3.546875 -0.265625 L 2.953125 -0.28125 C 2.578125 -0.28125 2.53125 -0.328125 2.53125 -0.65625 Z M 2.53125 -4.84375 "/>
</g>
<g id="glyph-7-1">
<path d="M 3.703125 -1.453125 L 3.4375 -1.453125 C 3.421875 -1.328125 3.34375 -0.90625 3.234375 -0.78125 C 3.203125 -0.703125 2.59375 -0.703125 2.46875 -0.703125 L 1.15625 -0.703125 L 1.921875 -1.390625 C 2.46875 -1.84375 2.921875 -2.203125 3.234375 -2.53125 C 3.5625 -2.875 3.703125 -3.1875 3.703125 -3.578125 C 3.703125 -4.453125 2.9375 -5.0625 1.9375 -5.0625 C 1.015625 -5.0625 0.375 -4.421875 0.375 -3.734375 C 0.375 -3.34375 0.734375 -3.28125 0.84375 -3.28125 C 1.046875 -3.28125 1.328125 -3.40625 1.328125 -3.71875 C 1.328125 -4 1.078125 -4.203125 0.796875 -4.15625 C 1.015625 -4.609375 1.46875 -4.78125 1.8125 -4.78125 C 2.609375 -4.78125 2.84375 -4.046875 2.84375 -3.578125 C 2.84375 -2.90625 2.34375 -2.3125 1.890625 -1.8125 L 0.453125 -0.3125 C 0.390625 -0.21875 0.375 -0.140625 0.375 0 L 3.46875 0 C 3.546875 -0.484375 3.625 -0.96875 3.703125 -1.453125 Z M 3.703125 -1.453125 "/>
</g>
<g id="glyph-7-2">
<path d="M 3.828125 -2.4375 C 3.828125 -2.921875 3.8125 -3.609375 3.515625 -4.1875 C 3.1875 -4.828125 2.65625 -5.0625 2.078125 -5.0625 C 1.515625 -5.0625 0.953125 -4.828125 0.625 -4.1875 C 0.34375 -3.640625 0.328125 -2.96875 0.328125 -2.4375 C 0.328125 -1.96875 0.328125 -1.21875 0.671875 -0.625 C 1.015625 -0.03125 1.59375 0.140625 2.078125 0.140625 C 2.671875 0.140625 3.21875 -0.09375 3.53125 -0.71875 C 3.796875 -1.25 3.828125 -1.890625 3.828125 -2.4375 Z M 2.078125 -0.0625 C 1.859375 -0.0625 1.3125 -0.171875 1.1875 -1 C 1.125 -1.421875 1.125 -2.140625 1.125 -2.53125 C 1.125 -3 1.125 -3.65625 1.203125 -4.046875 C 1.328125 -4.734375 1.859375 -4.84375 2.078125 -4.84375 C 2.359375 -4.84375 2.8125 -4.703125 2.953125 -4.015625 C 3.015625 -3.609375 3.03125 -2.953125 3.03125 -2.53125 C 3.03125 -2.046875 3.03125 -1.390625 2.953125 -0.96875 C 2.828125 -0.15625 2.265625 -0.0625 2.078125 -0.0625 Z M 2.078125 -0.0625 "/>
</g>
<g id="glyph-8-0">
<path d="M 2.375 -3.40625 C 2.375 -3.6875 2.140625 -3.875 1.90625 -3.875 C 1.65625 -3.875 1.421875 -3.6875 1.421875 -3.40625 C 1.421875 -3.109375 1.625 -2.921875 1.90625 -2.921875 C 2.1875 -2.921875 2.375 -3.15625 2.375 -3.40625 Z M 2.375 -0.375 C 2.375 -0.6875 2.15625 -0.84375 1.890625 -0.84375 C 1.65625 -0.84375 1.421875 -0.671875 1.421875 -0.375 C 1.421875 -0.125 1.65625 0.109375 1.890625 0.109375 C 2.15625 0.109375 2.375 -0.125 2.375 -0.375 Z M 2.375 -0.375 "/>
</g>
</g>
</defs>
<path fill-rule="nonzero" fill="rgb(84.118652%, 87.548828%, 84.902954%)" fill-opacity="1" stroke-width="0.89664" stroke-linecap="butt" stroke-linejoin="miter" stroke="rgb(6.27594%, 16.471863%, 26.275635%)" stroke-opacity="1" stroke-miterlimit="10" d="M -0.00178125 -0.001875 L -0.00178125 70.865312 L 113.388844 70.865312 L 113.388844 -0.001875 Z M -0.00178125 -0.001875 " transform="matrix(1, 0, 0, -1, 5.076, 75.795)"/>
<g fill="rgb(6.27594%, 16.471863%, 26.275635%)" fill-opacity="1">
<use xlink:href="#glyph-0-0" x="43.125" y="44.49"/>
</g>
<g fill="rgb(6.27594%, 16.471863%, 26.275635%)" fill-opacity="1">
<use xlink:href="#glyph-0-1" x="53.787545" y="44.49"/>
</g>
<g fill="rgb(6.27594%, 16.471863%, 26.275635%)" fill-opacity="1">
<use xlink:href="#glyph-0-2" x="54.311181" y="44.49"/>
<use xlink:href="#glyph-0-3" x="61.768635" y="44.49"/>
</g>
<g fill="rgb(6.27594%, 16.471863%, 26.275635%)" fill-opacity="1">
<use xlink:href="#glyph-0-4" x="69.226" y="44.49"/>
<use xlink:href="#glyph-0-2" x="72.954727" y="44.49"/>
<use xlink:href="#glyph-0-5" x="80.412181" y="44.49"/>
</g>
<path fill="none" stroke-width="0.59776" stroke-linecap="butt" stroke-linejoin="miter" stroke="rgb(6.27594%, 16.471863%, 26.275635%)" stroke-opacity="1" stroke-miterlimit="10" d="M 0.595875 -11.337813 L 112.791188 -11.337813 " transform="matrix(1, 0, 0, -1, 5.076, 75.795)"/>
<path fill="none" stroke-width="0.59776" stroke-linecap="round" stroke-linejoin="round" stroke="rgb(6.27594%, 16.471863%, 26.275635%)" stroke-opacity="1" stroke-miterlimit="10" d="M -2.31263 2.749263 C -1.890755 1.100825 -0.949349 0.319575 -0.00013 -0.0007375 C -0.949349 -0.32105 -1.890755 -1.1023 -2.31263 -2.750737 " transform="matrix(-1, 0, 0, 1, 5.37487, 87.13355)"/>
<path fill="none" stroke-width="0.59776" stroke-linecap="round" stroke-linejoin="round" stroke="rgb(6.27594%, 16.471863%, 26.275635%)" stroke-opacity="1" stroke-miterlimit="10" d="M -2.312787 2.750737 C -1.890912 1.1023 -0.949506 0.32105 -0.0002875 0.0007375 C -0.949506 -0.319575 -1.890912 -1.100825 -2.312787 -2.749263 " transform="matrix(1, 0, 0, -1, 118.16435, 87.13355)"/>
<path fill-rule="nonzero" fill="rgb(100%, 100%, 100%)" fill-opacity="1" d="M 46.324219 92.277344 L 77.214844 92.277344 L 77.214844 81.992188 L 46.324219 81.992188 Z M 46.324219 92.277344 "/>
<g fill="rgb(6.27594%, 16.471863%, 26.275635%)" fill-opacity="1">
<use xlink:href="#glyph-1-0" x="47.817" y="90.782"/>
</g>
<g fill="rgb(6.27594%, 16.471863%, 26.275635%)" fill-opacity="1">
<use xlink:href="#glyph-2-0" x="55.926" y="90.782"/>
<use xlink:href="#glyph-2-1" x="66.141691" y="90.782"/>
<use xlink:href="#glyph-2-2" x="68.909312" y="90.782"/>
</g>
<path fill="none" stroke-width="0.59776" stroke-linecap="butt" stroke-linejoin="miter" stroke="rgb(6.27594%, 16.471863%, 26.275635%)" stroke-opacity="1" stroke-miterlimit="10" d="M 126.14275 0.599687 L 126.14275 70.267656 " transform="matrix(1, 0, 0, -1, 5.076, 75.795)"/>
<path fill="none" stroke-width="0.59776" stroke-linecap="round" stroke-linejoin="round" stroke="rgb(6.27594%, 16.471863%, 26.275635%)" stroke-opacity="1" stroke-miterlimit="10" d="M -2.312536 2.74955 C -1.890661 1.101112 -0.949255 0.319862 -0.00003625 -0.00045 C -0.949255 -0.320763 -1.890661 -1.102013 -2.312536 -2.75045 " transform="matrix(0, 1, 1, 0, 131.2192, 75.49613)"/>
<path fill="none" stroke-width="0.59776" stroke-linecap="round" stroke-linejoin="round" stroke="rgb(6.27594%, 16.471863%, 26.275635%)" stroke-opacity="1" stroke-miterlimit="10" d="M -2.312193 2.75045 C -1.890318 1.102013 -0.948911 0.320763 0.0003075 0.00045 C -0.948911 -0.319862 -1.890318 -1.101112 -2.312193 -2.74955 " transform="matrix(0, -1, -1, 0, 131.2192, 5.22687)"/>
<path fill-rule="nonzero" fill="rgb(100%, 100%, 100%)" fill-opacity="1" d="M 125.992188 21.207031 L 125.992188 59.515625 L 136.449219 59.515625 L 136.449219 21.207031 Z M 125.992188 21.207031 "/>
<g fill="rgb(6.27594%, 16.471863%, 26.275635%)" fill-opacity="1">
<use xlink:href="#glyph-3-0" x="134.78" y="58.021"/>
</g>
<g fill="rgb(6.27594%, 16.471863%, 26.275635%)" fill-opacity="1">
<use xlink:href="#glyph-4-0" x="134.78" y="52.83"/>
</g>
<g fill="rgb(6.27594%, 16.471863%, 26.275635%)" fill-opacity="1">
<use xlink:href="#glyph-3-1" x="134.78" y="50.606"/>
</g>
<g fill="rgb(6.27594%, 16.471863%, 26.275635%)" fill-opacity="1">
<use xlink:href="#glyph-5-0" x="134.78" y="42.497"/>
<use xlink:href="#glyph-5-1" x="134.78" y="32.281309"/>
<use xlink:href="#glyph-5-2" x="134.78" y="29.513688"/>
</g>
<g fill="rgb(6.27594%, 16.471863%, 26.275635%)" fill-opacity="1">
<use xlink:href="#glyph-6-0" x="8.911" y="107.506"/>
</g>
<g fill="rgb(6.27594%, 16.471863%, 26.275635%)" fill-opacity="1">
<use xlink:href="#glyph-6-1" x="17.083" y="107.506"/>
<use xlink:href="#glyph-6-2" x="19.807184" y="107.506"/>
</g>
<g fill="rgb(6.27594%, 16.471863%, 26.275635%)" fill-opacity="1">
<use xlink:href="#glyph-6-3" x="25.256" y="107.506"/>
</g>
<g fill="rgb(6.27594%, 16.471863%, 26.275635%)" fill-opacity="1">
<use xlink:href="#glyph-6-4" x="30.710743" y="107.506"/>
</g>
<g fill="rgb(6.27594%, 16.471863%, 26.275635%)" fill-opacity="1">
<use xlink:href="#glyph-6-5" x="33.428" y="107.506"/>
</g>
<g fill="rgb(6.27594%, 16.471863%, 26.275635%)" fill-opacity="1">
<use xlink:href="#glyph-7-0" x="41.212" y="107.506"/>
</g>
<g fill="rgb(6.27594%, 16.471863%, 26.275635%)" fill-opacity="1">
<use xlink:href="#glyph-8-0" x="47.382" y="107.506"/>
</g>
<g fill="rgb(6.27594%, 16.471863%, 26.275635%)" fill-opacity="1">
<use xlink:href="#glyph-7-1" x="53.197" y="107.506"/>
<use xlink:href="#glyph-7-2" x="57.349684" y="107.506"/>
<use xlink:href="#glyph-7-2" x="61.502368" y="107.506"/>
</g>
</svg>
